<svg xmlns="http://www.w3.org/2000/svg" width="256" height="256" viewBox="0 0 256 256">
<defs>
    <clipPath id="clip">
      <rect x="0" y="0" width="256" height="256" rx="16" ry="16"/>
    </clipPath>
    <linearGradient id="bg1" x1="0" y1="0" x2="1" y2="1">
      <stop offset="0%"  stop-color="#ff006e"/>
      <stop offset="33%" stop-color="#8338ec"/>
      <stop offset="66%" stop-color="#3a86ff"/>
      <stop offset="100%" stop-color="#00f5d4"/>
    </linearGradient>
    <radialGradient id="bg2" cx="30%" cy="30%" r="80%">
      <stop offset="0%"  stop-color="#ffd166" stop-opacity="1"/>
      <stop offset="50%" stop-color="#ef476f" stop-opacity=".8"/>
      <stop offset="100%" stop-color="#118ab2" stop-opacity="0"/>
    </radialGradient>
    <linearGradient id="rings" x1="0" y1="0" x2="1" y2="0">
      <stop offset="0%" stop-color="#06d6a0"/>
      <stop offset="50%" stop-color="#ffd166"/>
      <stop offset="100%" stop-color="#ff006e"/>
    </linearGradient>
    <linearGradient id="txt" x1="0" y1="0" x2="1" y2="0">
      <stop offset="0%"  stop-color="#ffffff"/>
      <stop offset="45%" stop-color="#f5ff6b"/>
      <stop offset="55%" stop-color="#7bfffb"/>
      <stop offset="100%" stop-color="#ffffff"/>
    </linearGradient>
    <filter id="glow" x="-50%" y="-50%" width="200%" height="200%">
      <feGaussianBlur in="SourceGraphic" stdDeviation="3" result="b"/>
      <feMerge><feMergeNode in="b"/><feMergeNode in="SourceGraphic"/></feMerge>
    </filter>
    <filter id="grain" x="-20%" y="-20%" width="140%" height="140%">
      <feTurbulence type="fractalNoise" baseFrequency="1.2" numOctaves="4" seed="9" result="n"/>
      <feColorMatrix type="saturate" values="0" in="n" result="ng"/>
      <feComponentTransfer in="ng"><feFuncA type="linear" slope="0.25"/></feComponentTransfer>
      <feBlend mode="overlay" in="SourceGraphic" in2="ng"/>
    </filter>
  </defs>
  <g clip-path="url(#clip)">
    <g filter="url(#grain)">
      <rect width="256" height="256" fill="url(#bg1)"/>
      <rect width="256" height="256" fill="url(#bg2)"/>
      <g opacity="0.55">
        <circle cx="40" cy="210" r="90" fill="none" stroke="url(#rings)" stroke-width="20"/>
        <circle cx="230" cy="40" r="70" fill="none" stroke="url(#rings)" stroke-width="16"/>
        <circle cx="200" cy="220" r="55" fill="none" stroke="url(#rings)" stroke-width="14"/>
      </g>
    </g>
  </g>

  <g id="text" transform="translate(14.000000,153.134000) scale(0.038,-0.038) translate(-66.000000,20.000000)" filter="url(#glow)" fill="#eeeeee" stroke="#303030" stroke-width="100" stroke-linejoin="round" stroke-linecap="round" paint-order="stroke fill">
    <path d="M66 530V551Q66 670 100.0 770.5Q134 871 199.0 945.0Q264 1019 359.0 1060.5Q454 1102 577 1102Q700 1102 796.0 1060.5Q892 1019 957.5 945.0Q1023 871 1057.0 770.5Q1091 670 1091 551V530Q1091 412 1057.0 311.5Q1023 211 957.5 136.5Q892 62 797.0 21.0Q702 -20 579 -20Q456 -20 360.5 21.0Q265 62 199.5 136.5Q134 211 100.0 311.5Q66 412 66 530ZM354 551V530Q354 462 366.0 403.0Q378 344 404.5 299.5Q431 255 474.0 230.0Q517 205 579 205Q639 205 682.0 230.0Q725 255 751.0 299.5Q777 344 789.5 403.0Q802 462 802 530V551Q802 617 789.5 675.5Q777 734 750.5 779.5Q724 825 681.0 851.0Q638 877 577 877Q516 877 473.5 851.0Q431 825 404.5 779.5Q378 734 366.0 675.5Q354 617 354 551Z" transform="translate(0,0)" /><path d="M400 1537V0H112V1537ZM1082 1082 612 546 360 291 255 499 455 753 736 1082ZM783 0 463 500 662 674 1115 0Z" transform="translate(1156,0)" /><path d="M1066 234V0H333V234ZM430 1456V0H130V1456Z" transform="translate(2250,0)" /><path d="M974 483H1273Q1264 336 1192.5 222.0Q1121 108 993.5 44.0Q866 -20 687 -20Q547 -20 436.0 28.5Q325 77 246.5 168.0Q168 259 127.0 388.0Q86 517 86 677V778Q86 938 128.5 1067.5Q171 1197 250.5 1288.0Q330 1379 441.0 1428.0Q552 1477 689 1477Q871 1477 996.5 1411.0Q1122 1345 1191.5 1229.0Q1261 1113 1275 965H975Q970 1053 940.0 1114.5Q910 1176 849.5 1207.5Q789 1239 689 1239Q614 1239 558.0 1211.0Q502 1183 464.0 1126.0Q426 1069 407.5 982.5Q389 896 389 780V677Q389 564 406.0 478.5Q423 393 458.5 334.5Q494 276 550.5 246.5Q607 217 687 217Q781 217 842.0 247.0Q903 277 935.5 336.0Q968 395 974 483Z" transform="translate(3358,0)" /><path d="M1101 863V629H341V863ZM430 1456V0H130V1456ZM1315 1456V0H1016V1456Z" transform="translate(4698,0)" />
  </g>

</svg>
